<svg xmlns="http://www.w3.org/2000/svg" width="256" height="256"><path fill-opacity=".016" d="M0 128.004v128.004l128.25-.254 128.25-.254.254-127.75L257.008 0H0v128.004m.485.496c0 70.4.119 99.053.265 63.672.146-35.38.146-92.98 0-128C.604 29.153.485 58.1.485 128.5" fill="#1976D2" fill-rule="evenodd"/><path fill-opacity=".199" d="M161 39.443V47h-14v8h14V74.949l-24.012 28.775c-13.207 15.827-24.344 28.859-24.75 28.96-.589.147-25.729-29.285-32.329-37.85-1.541-2-2.331-1.198-24.903 25.3-12.821 15.052-24.2 28.357-25.288 29.568l-1.977 2.202 2.63 3.125L33 158.153v64.857l92.549-.255 92.548-.255-.072-36.392c-.065-32.907.078-36.268 1.492-35.094 1.328 1.103 2.091.789 5.047-2.076 1.915-1.856 3.276-3.912 3.025-4.567-.252-.656-13.282-16.242-28.956-34.637L170.134 76.29l-.317-10.647-.317-10.647 6.75.002L183 55v-8l-6.75.002-6.75.001V32.5l-4.25-.307-4.25-.308v7.558M48 208.034c-1.26.843-1.048 1.343 1.33 3.126 2.156 1.618 2.513 2.324 1.5 2.966-1.015.644-.916.847.42.859 2.703.023 2.069-2.752-1-4.376-2.013-1.065-2.348-1.588-1.25-1.953.825-.273 2.175-.723 3-.998 1.029-.343.872-.52-.5-.564-1.1-.035-2.675.388-3.5.94M77.829 211c-.21 2.2-.032 4 .395 4 .427 0 .776-1.8.776-4s-.178-4-.395-4c-.217 0-.567 1.8-.776 4m33.241.25c.05 3.007.292 3.685.827 2.319.708-1.807.335-6.569-.514-6.569-.21 0-.351 1.912-.313 4.25m52.945-.5c-.008 2.338.159 4.25.372 4.25.835 0 1.212-6.028.452-7.227-.485-.763-.815.428-.824 2.977m33.257.25c0 2.475.195 3.488.434 2.25.238-1.238.238-3.262 0-4.5-.239-1.238-.434-.225-.434 2.25m-79.501-1.234c-.254.971-.113 2.659.314 3.75.59 1.511.791 1.09.845-1.766.075-4.018-.41-4.848-1.159-1.984m36.896-1.099c-1.498 1.498-.603 5.218 1.408 5.857 1.142.362 2.342.393 2.667.067.325-.325-.111-.591-.968-.591-2.063 0-3.106-2.895-1.669-4.627 1.129-1.36-.155-1.99-1.438-.706M56.232 212c0 1.925.206 2.713.457 1.75.252-.963.252-2.537 0-3.5-.251-.963-.457-.175-.457 1.75m3.768-.059c0 1.682.45 3.059 1 3.059s1-1.098 1-2.441c0-1.343-.45-2.719-1-3.059-.583-.361-1 .656-1 2.441m4.412-1.675c1.177.889 1.67 2.078 1.282 3.089-.347.905-.165 1.645.404 1.645 1.996 0 .498-5.466-1.598-5.831-1.957-.341-1.959-.317-.088 1.097m6.74-.381c-1.616 1.024-1.176 4.343.623 4.707.701.142.814.029.25-.25-1.804-.895-1.099-3.377 1.225-4.311 1.257-.505 1.588-.925.75-.952-.825-.027-2.107.336-2.848.806m10.497-.211c.632.454 1.379 1.951 1.659 3.326.439 2.153.487 2.094.351-.423-.09-1.649-.813-3.099-1.659-3.326-1.003-.27-1.119-.129-.351.423m6.601-.012c-1.443.583-1.685 3.951-.343 4.78.498.309.672-.334.386-1.428-.606-2.318 2.226-3.895 3.932-2.189.787.787.699 1.564-.317 2.795-1.22 1.478-1.208 1.639.092 1.21 1.993-.659 2.544-3.87.848-4.945-1.476-.936-2.686-.994-4.598-.223M97.232 212c0 1.925.206 2.713.457 1.75.252-.963.252-2.537 0-3.5-.251-.963-.457-.175-.457 1.75m3.417-2.326c.632.454 1.379 1.951 1.659 3.326.439 2.153.487 2.094.351-.423-.09-1.649-.813-3.099-1.659-3.326-1.003-.27-1.119-.129-.351.423m24.202-.005c1.861.393 2.254 1 1.888 2.914-.293 1.534.004 2.417.813 2.417.901 0 1.061-.806.544-2.75-.524-1.971-1.42-2.796-3.163-2.914-2.427-.163-2.427-.162-.082.333m6.149 2.272c0 1.682.45 3.059 1 3.059s1-1.098 1-2.441c0-1.343-.45-2.719-1-3.059-.583-.361-1 .656-1 2.441m4.412-1.675c1.177.889 1.67 2.078 1.282 3.089-.347.905-.165 1.645.404 1.645 1.996 0 .498-5.466-1.598-5.831-1.957-.341-1.959-.317-.088 1.097m7.338-.605c1.585.337 2.25 1.196 2.25 2.909 0 1.336.48 2.43 1.066 2.43.587 0 .924-1.238.75-2.75-.261-2.275-.834-2.777-3.316-2.909-2.015-.106-2.261-.001-.75.32m24.899.104c.632.404 1.358 1.86 1.614 3.235.393 2.117.486 2.002.601-.75.104-2.486-.276-3.246-1.614-3.235-1.124.01-1.339.278-.601.75m5.899.485c-.419.963-.419 2.537 0 3.5.725 1.667.781 1.667 1.18 0 .23-.963.23-2.537 0-3.5-.399-1.667-.455-1.667-1.18 0m5.239 1.75c-.242 1.65-.069 3 .386 3s.827-1.35.827-3-.174-3-.387-3c-.212 0-.584 1.35-.826 3m4.213-.059c0 1.682.173 3.059.383 3.059.849 0 1.288-5.085.483-5.583-.476-.294-.866.842-.866 2.524m7.152-2.056c-1.7 1.077-1.143 4.3.848 4.907 1.211.37 1.259.202.25-.867-1.8-1.908-1.553-2.868 1-3.894 1.257-.505 1.588-.925.75-.952-.825-.027-2.107.336-2.848.806m10.497-.12c.632.404 1.358 1.86 1.614 3.235.393 2.117.486 2.002.601-.75.104-2.486-.276-3.246-1.614-3.235-1.124.01-1.339.278-.601.75m-77.982 2.902c-.932.932-.832 2.333.166 2.333.459 0 .834-.675.834-1.5 0-1.699-.073-1.76-1-.833m18.476.223c-.834.529-.971 1.098-.355 1.479.552.341 1.26-.053 1.576-.875.662-1.727.6-1.757-1.221-.604" fill="#1976D2" fill-rule="evenodd"/><path fill-opacity=".219" d="M161 39.954v6.955l-6.75.295-6.75.296v7l6.75.296 6.75.295v20.116l-6.732 8.146c-18.667 22.59-41.655 49.647-42.178 49.644-.324-.002-7.955-8.797-16.957-19.544-9.002-10.748-16.742-19.409-17.201-19.247-.458.162-11.93 13.267-25.494 29.123l-24.661 28.829 2.612 2.726L33 157.609V223h185v-36.622c0-29.181.254-36.414 1.25-35.594.907.747 2.332.118 5.193-2.289l3.943-3.318-3.591-4.339c-1.975-2.386-15.321-18.063-29.657-34.838l-26.065-30.5-.037-10.25L169 55h14v-8h-14V33h-8v6.954M60.673 130.579L44 150.158V201h12v-21.3c0-21.362.358-23.7 3.629-23.7 3.079 0 4.371 3.124 4.371 10.571 0 4.086.247 7.429.55 7.429.302 0 1.989-.758 3.75-1.683 4.295-2.26 15.105-2.26 19.4 0 1.761.925 3.43 1.683 3.71 1.683.28 0 .64-3.665.8-8.145.23-6.461.652-8.372 2.04-9.244 1.273-.801 2.227-.8 3.5.002 1.564.986 1.779 3.398 2.02 22.745l.269 21.642H112V150.867l-17.156-19.933C85.407 119.97 77.611 111 77.517 111c-.094 0-7.673 8.811-16.844 19.579m9.807 48.291c-5.143 2.336-6.48 5.365-6.48 14.677V201h27v-8.826c0-7.861-.246-9.056-2.25-10.933-4.817-4.512-11.614-5.394-18.27-2.371M164 210.441c0 2.507.373 4.559.829 4.559.457 0 .794-.998.75-2.219-.048-1.353.604-2.357 1.671-2.573 1.305-.265 1.75.299 1.75 2.219 0 1.415.48 2.573 1.066 2.573.587 0 .924-1.238.75-2.75-.249-2.165-.905-2.818-3.083-3.068-1.522-.175-2.527-.706-2.234-1.181.294-.475.076-1.145-.483-1.491-.631-.39-1.016 1.098-1.016 3.931m33.216.059c-.012 3.573.181 4.288.678 2.505.978-3.515 4.106-3.956 4.106-.578 0 1.415.48 2.573 1.066 2.573.587 0 .924-1.238.75-2.75-.246-2.142-.91-2.819-3.004-3.06-1.495-.173-2.886-1.061-3.134-2-.245-.93-.453.56-.462 3.31m-149.549-2.833c-1.38 1.38-.576 3.056 2.083 4.345l2.75 1.332-3 .71-3 .709 3.191.119c4.185.155 5.004-1.381 1.841-3.453-3.127-2.049-3.211-3.159-.282-3.723 2.05-.395 2.021-.446-.333-.57-1.421-.075-2.884.164-3.25.531M77 211c0 2.2.45 4 1 4s1-1.158 1-2.573c0-3.378 3.128-2.937 4.106.578.64 2.298.703 2.238.794-.755.087-2.827-.226-3.25-2.4-3.25-1.375 0-2.5-.45-2.5-1s-.45-1-1-1-1 1.8-1 4m34.179 0c.029 2.475.259 3.713.51 2.75.575-2.198 5.311-2.421 5.311-.25 0 .825.45 1.5 1 1.5s1-1.827 1-4.059c0-2.451-.396-3.814-1-3.441-.55.34-1 1.266-1 2.059 0 2.328-3.968 1.682-4.969-.809-.732-1.823-.894-1.395-.852 2.25m44.417-2.694c-1.098.803-1.653 2.248-1.441 3.75.284 2.015.96 2.478 3.845 2.636 2.943.161 3.102.075 1-.541-3.678-1.079-3.863-4.673-.306-5.97 2.255-.822 2.402-1.039.747-1.102-1.132-.043-2.862.509-3.845 1.227M56 212c0 1.65.372 3 .827 3 .455 0 .628-1.35.386-3s-.614-3-.826-3c-.213 0-.387 1.35-.387 3m4-.063c0 1.684.45 3.063 1 3.063s1-1.125 1-2.5c0-1.556.567-2.5 1.5-2.5s1.5.944 1.5 2.5c0 1.375.48 2.5 1.066 2.5.587 0 .924-1.238.75-2.75-.263-2.291-.858-2.802-3.566-3.063-3.028-.292-3.25-.104-3.25 2.75m10.011-1.45c-1.859 2.239-.469 4.522 2.708 4.45 2.662-.061 2.685-.102.531-.968-1.237-.498-2.25-1.384-2.25-1.969 0-.585 1.013-1.471 2.25-1.969 2.209-.888 2.211-.905.122-.968-1.17-.034-2.683.606-3.361 1.424m17.702-.866c-1.416 1.416-.746 5.379.909 5.379 1.308 0 1.388-.283.414-1.456-1.361-1.64-.6-3.544 1.416-3.544 1.864 0 2.628 2.505 1.22 4.003-.908.966-.834 1.144.328.789.825-.252 1.5-1.546 1.5-2.875 0-1.843-.602-2.487-2.537-2.713-1.396-.163-2.859.025-3.25.417m8.954.046C95.62 210.714 95.888 215 97 215c.55 0 1-1.158 1-2.573 0-3.283 3.345-2.991 3.82.333.347 2.438 2.18 3.128 2.18.822 0-3.066-1.303-4.582-3.94-4.582-1.5 0-3.027.3-3.393.667m27.083.039c1.96.377 2.778 1.947 2.368 4.544-.065.412.479.75 1.209.75.905 0 1.187-.953.886-3-.387-2.64-.817-2.984-3.576-2.864-2.355.102-2.576.244-.887.57m7.25 2.231c0 1.684.45 3.063 1 3.063s1-1.125 1-2.5c0-1.556.567-2.5 1.5-2.5s1.5.944 1.5 2.5c0 1.375.48 2.5 1.066 2.5.587 0 .924-1.238.75-2.75-.263-2.291-.858-2.802-3.566-3.063-3.028-.292-3.25-.104-3.25 2.75m11.851-2.263c1.862.389 2.254.994 1.888 2.909-.348 1.822-.025 2.417 1.313 2.417 1.447 0 1.64-.509 1.045-2.75-.57-2.152-1.368-2.785-3.663-2.909-2.236-.121-2.375-.041-.583.333M173 212c0 2.762.278 3 3.5 3s3.5-.238 3.5-3c0-1.65-.45-3-1-3s-1 1.125-1 2.5c0 1.556-.567 2.5-1.5 2.5s-1.5-.944-1.5-2.5c0-1.375-.45-2.5-1-2.5s-1 1.35-1 3m10 0c0 1.65.45 3 1 3s1-1.092 1-2.427c0-1.47.69-2.607 1.75-2.884 1.077-.281.692-.502-1-.573-2.415-.102-2.75.25-2.75 2.884m7.25-2.338c-.687.278-1.25 1.592-1.25 2.921 0 1.985.491 2.406 2.75 2.354 2.629-.061 2.652-.103.517-.962-2.494-1.003-2.154-3.581.568-4.302 1.233-.327 1.276-.451.165-.478-.825-.02-2.062.19-2.75.467m-68.556 2.977c-.817.817.115 2.361 1.424 2.361.55 0 .746-.412.435-.915-.311-.503 0-1.142.691-1.421.827-.333.715-.533-.327-.585-.871-.043-1.871.209-2.223.56m18.973.028c-1.166 1.166-.72 2.333.892 2.333.857 0 1.305-.412.994-.915-.311-.503 0-1.142.691-1.421.827-.333.715-.533-.327-.585-.871-.043-1.884.221-2.25.588" fill="#1976D2" fill-rule="evenodd"/><path fill-opacity=".809" d="M161 40.5V48h-13v6h13v21.795l-24.091 28.853c-13.249 15.868-24.387 28.931-24.75 29.028-.539.144-11.177-12.387-31.267-36.831l-2.608-3.173-25.141 29.36-25.142 29.36 2.5 2.609L33 157.609V222h185v-36.122c0-29.832.23-35.932 1.322-35.026 1.013.841 2.151.227 4.871-2.627l3.55-3.725-29.372-34.351L169 75.798V54h13.636v-6H169V33h-8v7.5m-17.417 74.52L123 140.04V201h22.961l.269-21.642c.241-19.347.456-21.759 2.02-22.745 1.268-.799 2.232-.802 3.5-.01.963.601 7.027 9.312 13.477 19.359l11.727 18.266.273-18.256c.241-16.119.478-18.385 2.023-19.359 1.275-.804 2.225-.804 3.5 0 1.564.986 1.779 3.398 2.02 22.745l.269 21.642H207l-.023-31.75-.022-31.75-9.097-10.5-20.578-23.75C170.965 95.963 165.432 90 164.982 90c-.449 0-10.079 11.259-21.399 25.02m-73.796 4.316c-4.008 4.584-11.675 13.536-17.037 19.892L43 150.785V201h13l.015-20.75c.009-11.412.397-21.352.863-22.087.467-.736 1.922-1.186 3.235-1 2.284.323 2.399.717 2.677 9.179.26 7.898.473 8.764 2 8.115 9.435-4.008 17.625-4.362 24.048-1.041L92 175.051v-7.825c0-8.056.884-10.226 4.165-10.226 3.285 0 3.835 3.432 3.835 23.934V201h12v-50.801l-16.75-19.543c-9.213-10.749-17.071-19.569-17.463-19.6-.393-.031-3.993 3.695-8 8.28M154 185.3V201h10c5.5 0 10-.223 10-.495 0-.61-17.884-28.639-19.113-29.955-.519-.556-.887 5.567-.887 14.75m-80.479-8.128c-2.188.49-5.225 2.087-6.75 3.547-2.618 2.508-2.771 3.143-2.771 11.468V201h28v-8.826c0-7.878-.241-9.045-2.25-10.875-4.591-4.181-9.93-5.539-16.229-4.127M55 207c0 .55.675 1 1.5 1s1.5-.45 1.5-1-.675-1-1.5-1-1.5.45-1.5 1m22 4.083c0 3.619.36 4.965 1.25 4.673.688-.226 1.392-1.613 1.566-3.083.414-3.491 1.963-3.441 2.368.077.405 3.526 2.316 3.125 2.316-.486 0-1.945-.579-2.845-2-3.112-1.1-.206-2.36-1-2.8-1.763-1.6-2.78-2.7-1.275-2.7 3.694m86.195-.333c.321 4.995 2.077 6.146 2.627 1.722.394-3.168 2.626-2.734 2.656.516.012 1.285.585 2.526 1.272 2.758.846.285 1.25-.738 1.25-3.163 0-3.155-.298-3.583-2.5-3.583-1.556 0-2.5-.567-2.5-1.5 0-.825-.7-1.5-1.555-1.5-1.231 0-1.491.989-1.25 4.75m33 0c.319 4.962 2.075 6.155 2.621 1.781.418-3.338 1.967-3.245 2.368.142.499 4.216 2.816 4.142 2.816-.09 0-3.155-.298-3.583-2.5-3.583-1.556 0-2.5-.567-2.5-1.5 0-.825-.7-1.5-1.555-1.5-1.231 0-1.491.989-1.25 4.75m-149.797-2.584c-.422.682.485 2.13 2.191 3.495l2.911 2.329-2.809.005c-1.617.003-2.547.429-2.191 1.005 1.365 2.209 7.5.435 7.5-2.168 0-.422-1.237-1.439-2.75-2.26-2.592-1.406-2.621-1.494-.5-1.532 1.237-.022 2.25-.49 2.25-1.04 0-1.399-5.724-1.255-6.602.166M110 210.941c0 4.342 1.816 6.48 2.684 3.16.736-2.814 4.316-2.828 4.316-.018 0 3.906 2.496 1.318 2.807-2.911.239-3.242-.039-4.172-1.25-4.172-.856 0-1.557.675-1.557 1.5 0 .833-.889 1.5-2 1.5s-2-.667-2-1.5c0-.825-.675-1.5-1.5-1.5-1.08 0-1.5 1.105-1.5 3.941m44.521-2.32c-.891.892-1.483 2.339-1.314 3.216.453 2.353 5.097 4.663 7.386 3.673 1.658-.717 1.515-.903-1.093-1.427-3.546-.712-4.28-4.325-1-4.916 3.547-.64 4.091-2.167.771-2.167-1.72 0-3.858.73-4.75 1.621m-99.334 3.629c.172 1.787.763 3.25 1.313 3.25.55 0 1.141-1.463 1.313-3.25.238-2.463-.08-3.25-1.313-3.25-1.233 0-1.551.787-1.313 3.25m4.813.25c0 1.925.45 3.5 1 3.5s1-1.35 1-3c0-2 .5-3 1.5-3 1.009 0 1.5 1.009 1.5 3.083 0 2.024.43 2.94 1.25 2.664 1.052-.352 1.392-2.7.869-5.997-.065-.412-1.694-.75-3.619-.75-3.333 0-3.5.167-3.5 3.5m9.309-1.864c-1.293 3.371 3.512 6.943 5.997 4.458.792-.792.486-1.094-1.106-1.094-2.907 0-2.872-2.794.05-3.969 2.036-.818 1.938-.91-1.031-.968-2.158-.041-3.497.497-3.91 1.573m17.156.476c-.952 2.997 1.642 5.329 4.993 4.488 5.183-1.301 3.968-6.6-1.513-6.6-1.981 0-3.008.623-3.48 2.112m9.717 1.074c.385 4.008 2.194 4.396 2.634.564.397-3.45 1.946-3.593 2.368-.219.426 3.407 2.316 3.178 2.316-.281 0-2.465-.396-2.783-3.818-3.064-3.773-.311-3.815-.276-3.5 3M124 209.918l2.5.801-2.831 1.147c-3.808 1.542-2.874 3.599 1.719 3.785 3.602.147 3.714.048 3.418-3-.275-2.832-.66-3.17-3.806-3.343-3.052-.167-3.18-.089-1 .61m7 2.582c0 1.925.45 3.5 1 3.5s1-1.35 1-3c0-2 .5-3 1.5-3s1.5 1 1.5 3c0 1.65.45 3 1 3s1-1.575 1-3.5c0-3.333-.167-3.5-3.5-3.5s-3.5.167-3.5 3.5m11-2.489l2.5.811-2.298.718c-3.73 1.166-2.327 3.907 2.19 4.278 3.258.268 3.774.056 3.241-1.331-.348-.908-.633-2.514-.633-3.569 0-1.567-.685-1.9-3.75-1.818-3.359.089-3.489.184-1.25.911m31.187 2.239c.288 2.988.595 3.25 3.813 3.25s3.525-.262 3.813-3.25c.233-2.414-.088-3.25-1.25-3.25-1.001 0-1.563.899-1.563 2.5 0 1.556-.567 2.5-1.5 2.5s-1.5-.944-1.5-2.5c0-1.375-.479-2.5-1.063-2.5-.598 0-.926 1.424-.75 3.25m9-.077c.382 3.873 2.813 5.134 2.813 1.46 0-1.393.787-2.992 1.75-3.553 1.445-.841 1.172-1.024-1.563-1.05-3.126-.028-3.296.149-3 3.143m7.013-1.973c-1.752 1.752-1.47 3.585.734 4.765 2.458 1.315 5.066 1.333 5.066.035 0-.55-.9-1-2-1-2.727 0-2.548-2.844.25-3.969 2.223-.894 2.22-.905-.3-.968-1.402-.034-3.09.477-3.75 1.137m-99.561.494c-1.195 1.195-.645 3.306.861 3.306.825 0 1.5-.648 1.5-1.441 0-1.671-1.427-2.798-2.361-1.865m53.174 2.989c.721.289 1.584.253 1.916-.079.332-.332-.258-.568-1.312-.525-1.165.048-1.402.285-.604.604" fill="#1976D2" fill-rule="evenodd"/></svg>